<svg xmlns="http://www.w3.org/2000/svg" width="14.92" height="25.636" viewBox="0 0 14.92 25.636"><defs><style>.a{fill:none;stroke:#383d40;stroke-miterlimit:10;}</style></defs><g transform="translate(-269.432 29.255) rotate(-13)"><path class="a" d="M4.828,0h0A4.828,4.828,0,0,1,9.656,4.828V18.162a1.009,1.009,0,0,1-1.009,1.009H1.009A1.009,1.009,0,0,1,0,18.162V4.828A4.828,4.828,0,0,1,4.828,0Z" transform="translate(268.262 38.432)"/><path class="a" d="M1.781,0h.193A1.781,1.781,0,0,1,3.755,1.781v.548a0,0,0,0,1,0,0H0a0,0,0,0,1,0,0V1.781A1.781,1.781,0,0,1,1.781,0Z" transform="translate(271.212 34.072)"/><path class="a" d="M268.262,61.154a5.94,5.94,0,0,1,5.248,0,3.754,3.754,0,0,0,4.408-.374" transform="translate(0 -14.492)"/><line class="a" y2="4.577" transform="translate(270.396 48.808)"/></g></svg>