<svg xmlns="http://www.w3.org/2000/svg" width="61" height="61" viewBox="0 0 61 61"><g transform="translate(-255 -284)"><circle cx="30.5" cy="30.5" r="30.5" transform="translate(255 284)" fill="#e3ebff"/><g transform="translate(37.544 -1.538)"><g transform="translate(236 305.772)"><g transform="translate(0 0)"><circle cx="2.892" cy="2.892" r="2.892" transform="translate(14.764)" fill="none" stroke="#5686fb" stroke-miterlimit="10" stroke-width="2"/><path d="M2248.807,4184.185h-4.262a9.2,9.2,0,0,1-3.044-4.872s-5.175-1.217-7,5.785l4.871,3.348.3,4.262h1.827" transform="translate(-2228.412 -4175.813)" fill="none" stroke="#5686fb" stroke-miterlimit="10" stroke-width="2"/><path d="M2247.979,4185.5a6.464,6.464,0,0,0-5.479,5.175" transform="translate(-2233.976 -4180.172)" fill="none" stroke="#5686fb" stroke-miterlimit="10" stroke-width="2"/><circle cx="4.566" cy="4.566" r="4.566" transform="translate(14.612 11.72)" fill="none" stroke="#5686fb" stroke-miterlimit="10" stroke-width="2"/><circle cx="4.566" cy="4.566" r="4.566" transform="translate(0 11.72)" fill="none" stroke="#5686fb" stroke-miterlimit="10" stroke-width="2"/><line x2="3.044" y2="6.088" transform="translate(16.286 10.35)" fill="none" stroke="#5686fb" stroke-miterlimit="10" stroke-width="2"/></g></g></g></g></svg>