<svg xmlns="http://www.w3.org/2000/svg" width="36.877" height="36.877" viewBox="0 0 36.877 36.877"><defs><style>.a,.b{fill:#f0f0f0;}.b{stroke:#33b09d;stroke-miterlimit:10;stroke-width:1.5px;}.c,.d{stroke:none;}.d{fill:#dedede;}</style></defs><g transform="translate(-1296 -271)"><g class="a" transform="translate(1296 271)"><path class="c" d="M18.438,0A18.438,18.438,0,1,1,0,18.438,18.438,18.438,0,0,1,18.438,0Z"/><path class="d" d="M 18.43844795227051 0.9999961853027344 C 13.78046798706055 0.9999961853027344 9.401298522949219 2.813919067382812 6.107608795166016 6.107608795166016 C 2.813919067382812 9.401298522949219 0.9999961853027344 13.78046798706055 0.9999961853027344 18.43844795227051 C 0.9999961853027344 23.09642791748047 2.813919067382812 27.4755973815918 6.107608795166016 30.769287109375 C 9.401298522949219 34.0629768371582 13.78046798706055 35.87689971923828 18.43844795227051 35.87689971923828 C 23.09642791748047 35.87689971923828 27.4755973815918 34.0629768371582 30.769287109375 30.769287109375 C 34.0629768371582 27.4755973815918 35.87689971923828 23.09642791748047 35.87689971923828 18.43844795227051 C 35.87689971923828 13.78046798706055 34.0629768371582 9.401298522949219 30.769287109375 6.107608795166016 C 27.4755973815918 2.813919067382812 23.09642791748047 0.9999961853027344 18.43844795227051 0.9999961853027344 M 18.43844795227051 -3.814697265625e-06 C 28.62171936035156 -3.814697265625e-06 36.87689971923828 8.255178451538086 36.87689971923828 18.43844795227051 C 36.87689971923828 28.62171936035156 28.62171936035156 36.87689971923828 18.43844795227051 36.87689971923828 C 8.255178451538086 36.87689971923828 -3.814697265625e-06 28.62171936035156 -3.814697265625e-06 18.43844795227051 C -3.814697265625e-06 8.255178451538086 8.255178451538086 -3.814697265625e-06 18.43844795227051 -3.814697265625e-06 Z"/></g><g transform="translate(176.333 -103.332)"><path class="b" d="M1134.762,386.688h-4.1v3.472" transform="translate(0 -0.044)"/><path class="b" d="M1146.838,390.428v-4.1h-3.472" transform="translate(-1.555 0)"/><path class="b" d="M1142.656,401.16h4.1v-3.472" transform="translate(-1.468 -1.39)"/><path class="b" d="M1130.667,397.333v4.1h3.472" transform="translate(0 -1.347)"/></g></g></svg>
