<svg xmlns="http://www.w3.org/2000/svg" width="61" height="61" viewBox="0 0 61 61"><defs><style>.a{fill:#e3ebff;}.b{fill:#5686fb;}</style></defs><g transform="translate(-802 -303)"><circle class="a" cx="30.5" cy="30.5" r="30.5" transform="translate(802 303)"/><g transform="translate(240.326 196.307)"><path class="b" d="M607.931,141.8v.64c-.166.439-.346.875-.5,1.32a13.2,13.2,0,0,1-4.883,6.847,11.586,11.586,0,0,1-9.427,1.724,13.917,13.917,0,0,1-8.861-6.33.585.585,0,0,0-.53-.305,4.474,4.474,0,0,1-4.269-4.934c.037-.386.251-.836.116-1.137-.144-.322-.594-.516-.927-.741a2.875,2.875,0,0,1-1.274-2.518,7.7,7.7,0,0,1,.678-3.1,25.886,25.886,0,0,1,7.927-10.213,10.25,10.25,0,0,1,3.793-2.025,3.3,3.3,0,0,1,3.19.676c.277.24.569.462.86.7.287-.157.562-.318.844-.463a8.926,8.926,0,0,1,4.368-1.186A2.852,2.852,0,0,1,602,124.1a9.094,9.094,0,0,1-1.425,3.932c-.083.138-.168.276-.246.4.128.158.243.279.333.417a5.719,5.719,0,0,0,.629.98,3.635,3.635,0,0,1,1.035,2.129c.116.8.2,1.6.279,2.4a.745.745,0,0,0,.493.721,6.811,6.811,0,0,1,2.091,1.251,1.377,1.377,0,0,0,.445.271,1.59,1.59,0,0,1,.732,2.567.37.37,0,0,0-.1.27c.114.372.252.736.393,1.1a.259.259,0,0,0,.147.127A1.711,1.711,0,0,1,607.931,141.8Zm-12.018,2.587a1.335,1.335,0,0,0,1,.885,5.541,5.541,0,0,0,2.359.112,12.5,12.5,0,0,0,6.444-2.985c.076-.063.154-.124.231-.186l.079.077a11.993,11.993,0,0,1-.953,1.067,10.932,10.932,0,0,1-6.148,2.755,4.74,4.74,0,0,1-2.645-.319,1.88,1.88,0,0,1-1.139-1.843,1.508,1.508,0,0,1,1.57-1.523,17.149,17.149,0,0,0,2.188-.209,10.838,10.838,0,0,0,6.444-3.515c.424-.474.282-.9-.342-1.067a.62.62,0,0,1-.285-.114,7.969,7.969,0,0,0-2.48-1.558,1.03,1.03,0,0,1-.65-.857c-.062-.528-.112-1.059-.2-1.583a13.926,13.926,0,0,0-.453-2.246,1.251,1.251,0,0,0-1.808-.771,2.336,2.336,0,0,0-.624.456,3.308,3.308,0,0,1-2.332.971c-.58,0-1.16-.021-1.74-.018a3.093,3.093,0,0,0-3,2.272,5.544,5.544,0,0,0-.07,2.5l-.521-.375a4.4,4.4,0,0,0,1.508,2.3l-.37.088c.147.109.245.194.355.26.3.183.61.359.911.535a4.832,4.832,0,0,0-1.669,4.5l.3-.385a5.462,5.462,0,0,0,.29,2.335l.479-.864a4.959,4.959,0,0,0,.6,2.266l.136-.783c.085.176.147.3.2.423a3.836,3.836,0,0,0,2.844,2.283,8.485,8.485,0,0,0,6.266-1.128,9.856,9.856,0,0,0,4.141-5.608c.2-.566-.184-.982-.79-.93l-.211.021-.513-1.924c-.265.237-.433.4-.616.548a12.588,12.588,0,0,1-7.837,2.691c-.7.018-.868.138-1.047.858,2.285.567,4.411-.179,6.561-.733A9.791,9.791,0,0,1,595.913,144.387Zm1.472-22.628c-.062.011-.13.021-.2.038a11.829,11.829,0,0,0-3.018,1.3.406.406,0,0,1-.554-.055c-.437-.382-.88-.756-1.339-1.11a.6.6,0,0,0-.4-.069c-.193.022-.378.119-.571.14-.385.042-.782.012-1.157.089a7.047,7.047,0,0,0-2.475,1.118,23.21,23.21,0,0,0-8.386,9.968,7.741,7.741,0,0,0-.8,3.067,1.835,1.835,0,0,0,.462,1.511,10.561,10.561,0,0,0,1.1.78.289.289,0,0,0,.47-.087,1.878,1.878,0,0,1,.534-.564,2.99,2.99,0,0,0,1.146-1.692,23.009,23.009,0,0,1,8.5-10.62.676.676,0,0,1,.151-.047,30.021,30.021,0,0,0-5.595,6.864.61.61,0,0,0,.218-.179c.927-1.092,1.861-2.178,2.779-3.278A25.768,25.768,0,0,1,597.385,121.759Zm-11.1,17.521h-.1l-.266.689a12.77,12.77,0,0,0-.461-1.277,1.185,1.185,0,0,0-.516-.554,2.921,2.921,0,0,0-1.768-.213,3.379,3.379,0,0,0-2.673,3.556,3.3,3.3,0,0,0,2.817,3.168,3.212,3.212,0,0,0,3.544-2.533,9.491,9.491,0,0,0,.116-1.329l-.115-.012-.287.464Zm1.859-7.228c.086-.085.176-.169.26-.257a15.03,15.03,0,0,1,5.784-3.882,8.4,8.4,0,0,1,4-.605,10.873,10.873,0,0,1,1.278.32,2.855,2.855,0,0,0-1.562-1.21l.144.318-1.567-.677-.041.071.361.5a4.332,4.332,0,0,0-1.947-.25l.49.3a6.07,6.07,0,0,0-2.832.438l.925.172c-.368.191-.741.3-1.1.445s-.677.315-1.015.476l.037.073.641-.053A13.4,13.4,0,0,0,588.14,132.052Z" transform="translate(0 0)"/><path class="b" d="M609.686,151.736a1.858,1.858,0,0,1,1.713-1.03,1.64,1.64,0,0,1,1.618.86,7.59,7.59,0,0,0-1.661-.272A8.016,8.016,0,0,0,609.686,151.736Z" transform="translate(-16.263 -15.08)"/><path class="b" d="M623.308,148.266c-.323-.05-.616-.079-.9-.147a.333.333,0,0,1-.2-.235,5.775,5.775,0,0,1-.015-.986.431.431,0,0,1,.247-.3.41.41,0,0,1,.33.141A2.351,2.351,0,0,1,623.308,148.266Z" transform="translate(-22.553 -13.009)"/><path class="b" d="M614.123,153.479l-1.961.282c.051-.344.337-.45.608-.534A1.223,1.223,0,0,1,614.123,153.479Z" transform="translate(-17.51 -16.305)"/><path class="b" d="M620.682,152.723c.413.025.694.291.672.539s-.188.3-.4.3c-.3-.009-.607-.282-.543-.522C620.454,152.9,620.622,152.791,620.682,152.723Z" transform="translate(-21.66 -16.095)"/><path class="b" d="M623.692,152.275c.061-.321.1-.58.392-.555.1.009.243.232.262.372.031.231-.061.481-.348.46C623.878,152.544,623.771,152.351,623.692,152.275Z" transform="translate(-23.314 -15.59)"/><path class="b" d="M601.409,125.409l2.214,1.844-.489.407c-.537-.476-1.084-.911-1.562-1.413-.173-.181-.179-.521-.262-.789Z" transform="translate(-12.047 -2.345)"/><path class="b" d="M606.431,127.184l-.5.389-.828-.716.025-.062Z" transform="translate(-13.955 -3.043)"/><path class="b" d="M605.449,123.465l.361,1.209c-.2-.076-.39-.09-.439-.182A1,1,0,0,1,605.449,123.465Z" transform="translate(-14.037 -1.367)"/><path class="b" d="M607.938,125.418l.69.559-.442.3Z" transform="translate(-15.383 -2.35)"/><path class="b" d="M586.42,160.692a3.482,3.482,0,0,1-.39-.579,2.051,2.051,0,0,1,2.395-2.784,1.5,1.5,0,0,1,1.12,1.236,2.044,2.044,0,0,1-.128.488c-.619-1.022-1.1-1.292-1.927-1.013-1.346.454-1.236,1.5-.926,2.6Z" transform="translate(-4.263 -18.373)"/><path class="b" d="M590.268,162.7a4.737,4.737,0,0,0,.557,0,.733.733,0,0,0,.669-.6.71.71,0,0,0-.324-.858,1.464,1.464,0,0,1-.544-.436.876.876,0,0,1-.055-.649c.042-.126.3-.182.521-.3-.09.279-.226.479-.173.591.068.145.277.236.44.322a1.063,1.063,0,0,1,.646,1.334,1.132,1.132,0,0,1-1.149.917,2.584,2.584,0,0,1-.627-.173Z" transform="translate(-6.47 -19.684)"/></g></g></svg>