<svg xmlns="http://www.w3.org/2000/svg" width="61" height="61" viewBox="0 0 61 61"><g transform="translate(-32.909 -175.753)"><circle cx="30.5" cy="30.5" r="30.5" transform="translate(32.909 175.753)" fill="#e3ebff"/><g transform="translate(49.112 194.291)"><path d="M69.354,199.061v-1.779a3.3,3.3,0,0,0-3.086-3.478H59.327a3.3,3.3,0,0,0-3.087,3.478v1.779H53.387v18.667H72.3V199.061Zm-10.987-1.779c0-.733.44-1.352.96-1.352h6.941c.521,0,.96.619.96,1.352v1.779H58.367Z" transform="translate(-48.56 -193.804)" fill="#5686fb"/><path d="M52.8,198.923H50.358a1.671,1.671,0,0,0-1.671,1.671v15.325a1.671,1.671,0,0,0,1.671,1.671H52.8Z" transform="translate(-48.687 -193.666)" fill="#5686fb"/><path d="M74.967,198.923H72.5V217.59h2.471a1.67,1.67,0,0,0,1.67-1.671V200.594A1.67,1.67,0,0,0,74.967,198.923Z" transform="translate(-48.045 -193.666)" fill="#5686fb"/></g></g></svg>