<svg xmlns="http://www.w3.org/2000/svg" width="61" height="61" viewBox="0 0 40.398 40.398"><defs><style>.a{fill:#e3ebff;}.b{fill:#5686fb;}</style></defs><g transform="translate(-101.199 -34.853)"><circle class="a" cx="20.199" cy="20.199" r="20.199" transform="translate(101.2 34.853)"/><path class="b" d="M126.125,49.628a10.151,10.151,0,1,0,10.151,10.15A10.162,10.162,0,0,0,126.125,49.628Zm7.574,9.64h-6.342l4.483-4.483A7.557,7.557,0,0,1,133.7,59.268ZM126.635,52.2a7.56,7.56,0,0,1,4.483,1.859l-4.483,4.483Zm-1.02,6.342-4.483-4.483a7.566,7.566,0,0,1,4.483-1.859Zm0,8.806a7.557,7.557,0,0,1-4.483-1.859l4.483-4.483Zm1.02-6.342,4.483,4.483a7.556,7.556,0,0,1-4.483,1.859Zm-6.225-6.225,4.483,4.483h-6.343A7.554,7.554,0,0,1,120.41,54.785Zm-1.859,5.5h6.343l-4.483,4.483A7.552,7.552,0,0,1,118.551,60.288Zm13.289,4.483-4.483-4.483H133.7A7.557,7.557,0,0,1,131.84,64.772Z" transform="translate(-4.726 -4.726)"/></g></svg>
