<svg xmlns="http://www.w3.org/2000/svg" width="61.397" height="61.398" viewBox="0 0 61.397 61.398"><g transform="translate(-251.159 -176.271)"><circle cx="30.699" cy="30.699" r="30.699" transform="translate(251.159 176.271)" fill="#e3ebff"/><g transform="translate(269.829 194.941)"><circle cx="12.028" cy="12.028" r="12.028" fill="#5686fb"/><g transform="translate(7.474 5.526)"><path d="M285.083,213.062a.72.72,0,0,1-.6-.321l-4.238-6.4h-2.358v6a.718.718,0,1,1-1.436,0v-6.721a.718.718,0,0,1,.718-.718h2.124l-2.724-4.111a.719.719,0,0,1,.6-1.114h5.768a3.331,3.331,0,0,1,0,6.662h-.971l3.714,5.606a.719.719,0,0,1-.6,1.115Zm-4.066-8.158h1.922a1.895,1.895,0,1,0,0-3.789h-4.431Z" transform="translate(-276.452 -199.679)" fill="#fff"/></g></g></g></svg>