<svg xmlns="http://www.w3.org/2000/svg" width="40.398" height="40.398" viewBox="0 0 40.398 40.398"><defs><style>.a{fill:#e3ebff;}.b{fill:#5686fb;}.c{fill:#fff;}</style></defs><g transform="translate(-169.973 -36.369)"><circle class="a" cx="20.199" cy="20.199" r="20.199" transform="translate(169.973 36.369)"/><g transform="translate(183.529 46.597)"><path class="b" d="M6.644,0h0a6.644,6.644,0,0,1,6.644,6.644v3.642A2.085,2.085,0,0,1,11.2,12.37H2.085A2.085,2.085,0,0,1,0,10.285V6.644A6.644,6.644,0,0,1,6.644,0Z" transform="translate(0 5.572)"/><path class="b" d="M198.519,57.857h0a2.366,2.366,0,0,0,1.99-1.087c.66-1.025,1.246-2.42-.368-2.512-2.571-.147-2.424-.294-3.452-1.1-.917-.72-1.833,1.884.108,3.966A2.347,2.347,0,0,0,198.519,57.857Z" transform="translate(-191.776 -53.033)"/><g transform="translate(4.826 9.46)"><path class="c" d="M200.522,69.082a1.433,1.433,0,0,1-.4.505,1.712,1.712,0,0,1-.59.3,2.494,2.494,0,0,1-.725.1h-.767v1.379h-1.011V66.779h1.877a2.211,2.211,0,0,1,.738.114,1.581,1.581,0,0,1,.551.325,1.411,1.411,0,0,1,.348.5,1.663,1.663,0,0,1,.122.646v.013A1.61,1.61,0,0,1,200.522,69.082Zm-.88-.7a.627.627,0,0,0-.22-.519.934.934,0,0,0-.6-.177h-.78v1.4h.8a.822.822,0,0,0,.59-.2.656.656,0,0,0,.21-.5Z" transform="translate(-197.031 -66.779)"/></g></g></g></svg>