<svg xmlns="http://www.w3.org/2000/svg" width="19" height="19" viewBox="0 0 19 19"><defs><style>.a{fill:#fff;}.b,.c{stroke:none;}.c{fill:#9c9eaa;}</style></defs><g class="a"><path class="b" d="M 15 18.5 L 4 18.5 C 2.070090055465698 18.5 0.5 16.92991065979004 0.5 15 L 0.5 4 C 0.5 2.070090055465698 2.070090055465698 0.5 4 0.5 L 15 0.5 C 16.92991065979004 0.5 18.5 2.070090055465698 18.5 4 L 18.5 15 C 18.5 16.92991065979004 16.92991065979004 18.5 15 18.5 Z"/><path class="c" d="M 4 1 C 2.345790863037109 1 1 2.345790863037109 1 4 L 1 15 C 1 16.65420913696289 2.345790863037109 18 4 18 L 15 18 C 16.65420913696289 18 18 16.65420913696289 18 15 L 18 4 C 18 2.345790863037109 16.65420913696289 1 15 1 L 4 1 M 4 0 L 15 0 C 17.20914077758789 0 19 1.790859222412109 19 4 L 19 15 C 19 17.20914077758789 17.20914077758789 19 15 19 L 4 19 C 1.790859222412109 19 0 17.20914077758789 0 15 L 0 4 C 0 1.790859222412109 1.790859222412109 0 4 0 Z"/></g></svg>