<svg xmlns="http://www.w3.org/2000/svg" width="14.022" height="20.27" viewBox="0 0 14.022 20.27"><g transform="translate(-313.686 22.262) rotate(-11)"><path d="M322.416,45.872V42.82h-9.259v3.052a4.627,4.627,0,0,0,3.4,4.458,4.628,4.628,0,0,0-3.4,4.458V57.84h9.259V54.788a4.628,4.628,0,0,0-3.388-4.456,4.63,4.63,0,0,0,3.388-4.46Z" transform="translate(-0.668 -1.127)" fill="none" stroke="#383d40" stroke-miterlimit="10" stroke-width="1"/><line x1="10.674" transform="translate(311.782 58.075)" fill="none" stroke="#383d40" stroke-miterlimit="10" stroke-width="1"/><line x1="10.674" transform="translate(311.782 40.5)" fill="none" stroke="#383d40" stroke-miterlimit="10" stroke-width="1"/><path d="M313.157,70.163l3.021-1.573a3.483,3.483,0,0,1,3.218,0l3.021,1.573" transform="translate(-0.668 -13.449)" fill="#383d40"/><line y2="3.35" transform="translate(313.904 41.694)" fill="none" stroke="#383d40" stroke-miterlimit="10" stroke-width="1"/></g></svg>